# xmcd
#
# Track frame offsets: 
#        182
#        10752
#        20790
#        31682
#        42610
#        53720
#        64225
#        72500
#        84180
#        95895
#        111250
#        121732
#        144757
#        154602
#        167900
#        180830
#        192987
#        203897
#        219270
#        230795
#        241992
#        255475
#        268905
#        279430
#        292927
#        303555
#        316872
#
# Disc length: 4392 seconds
#
# Revision: 13
# Processed by: cddbd v1.5.2PL0 Copyright (c) Steve Scherf et al.
# Submitted via: ExactAudioCopyFreeDBPlugin 1.0
#
DISCID=7d11261b
DTITLE=Various Artist - Atlantic Rhythm and Blues, 1947-1974
DYEAR=1991
DGENRE=Rhythm and Blues
TTITLE0=The Coasters - Young Blood
TTITLE1=The Bobbettes - Mr. Lee
TTITLE2=Clyde McPhatter - Long Lonely Nights
TTITLE3=Chuck Willis - Betty and Dupree
TTITLE4=Chuck Willis - What Am I Livin' For
TTITLE5=Chuck Willis - Hang Up My Rock and Roll Shoes
TTITLE6=The Coasters - Yakety Yak
TTITLE7=Clyde McPhatter - A Lover's Question
TTITLE8=LaVern Baker - I Cried a Tear
TTITLE9=Ray Charles - The Right Time
TTITLE10=The Coasters - Charlie Brown
TTITLE11=Ray Charles - What'd I Say, Parts 1 and 2
TTITLE12=The Drifters - There Goes My Baby
TTITLE13=The Coasters - Along Came Jones
TTITLE14=Ray Charles - Let the Good Times Roll
TTITLE15=The Coasters - Poison Ivy
TTITLE16=The Drifters - Dance with Me
TTITLE17=Ray Charles - Just for a Thrill
TTITLE18=The Drifters - This Magic Moment
TTITLE19=The Drifters - Save the Last Dance for Me
TTITLE20=The Coasters - Shopping for Clothes
TTITLE21=Ben E. King - Spanish Harlem
TTITLE22=Ben E. King - Young Boy Blues
TTITLE23=Ben E. King - Stand By Me
TTITLE24=Carla Thomas - Gee Whiz
TTITLE25=LaVern Baker - Saved
TTITLE26=Solomon Burke - Just Out of Reach (Of My Two Empty Arms)
EXTD=
EXTT0=
EXTT1=
EXTT2=
EXTT3=
EXTT4=
EXTT5=
EXTT6=
EXTT7=
EXTT8=
EXTT9=
EXTT10=
EXTT11=
EXTT12=
EXTT13=
EXTT14=
EXTT15=
EXTT16=
EXTT17=
EXTT18=
EXTT19=
EXTT20=
EXTT21=
EXTT22=
EXTT23=
EXTT24=
EXTT25=
EXTT26=
PLAYORDER=
